<?xml version="1.0" encoding="utf-8"?>
<!-- Generator: Adobe Illustrator 26.0.1, SVG Export Plug-In . SVG Version: 6.00 Build 0)  -->
<svg version="1.1" id="Layer_1" xmlns="http://www.w3.org/2000/svg" xmlns:xlink="http://www.w3.org/1999/xlink" x="0px" y="0px"
	 viewBox="0 0 532.69 500" style="enable-background:new 0 0 532.69 500;" xml:space="preserve">
<g>
	<path d="M509.2,356.79c-18.59,3.02-33.52-5-45.74-17.39c-13.01-13.19-24.92-27.57-36.3-42.21c-8.8-11.32-15.78-24.05-24.08-35.79
		c-7.35-10.4-17.06-17.25-30.63-15.39c-11.11,1.52-18.5,8.82-24.59,17.53c-10.67,15.26-20.84,30.87-31.82,45.9
		c-5.06,6.93-10.8,13.76-17.49,19.04c-23.52,18.53-56.1,18.71-80.28,0.99c-6.99-5.12-13.5-10.9-20.21-16.4
		c-25.91-21.22-59.12-18.32-80.6,7.46c-14.27,17.13-29.64,32.94-47.1,46.96c-18.27,14.67-38.92,17.27-60.98,15.48
		c-5.48-0.44-9.35-4.7-9.25-9.53c0.11-5.2,4.14-8.87,10.21-9.03c5.08-0.14,10.2-0.46,15.23,0.05c10.79,1.09,19.79-2.8,28.44-8.67
		c18.78-12.74,34.27-28.83,48.33-46.45c11.94-14.97,27.14-24.61,46.2-27.73c20.61-3.37,39.56,0.74,56.41,13.21
		c6.8,5.03,13.13,10.68,19.69,16.04c25.04,20.47,55.84,16.48,74.61-9.9c10.55-14.82,20.64-29.97,31.01-44.92
		c2.53-3.65,5.12-7.29,8.07-10.6c22.93-25.73,57.23-24.68,78.13,2.73c7.68,10.07,14.38,20.91,21.27,31.56
		c11.78,18.22,24.85,35.25,41.85,49.04c7.87,6.38,16.11,10.59,26.64,9.41c5.23-0.59,10.58-0.27,15.86-0.05
		c6.39,0.26,10.64,4.25,10.59,9.54c-0.05,5.35-4.21,8.92-10.8,9.1C517.67,356.88,513.43,356.79,509.2,356.79z"/>
	<path d="M265.7,499.99c-83.19,0-166.38,0-249.57,0c-1.48,0-2.96,0.02-4.45-0.01c-7.33-0.11-11.86-3.84-11.69-9.6
		c0.17-5.52,4.5-9.02,11.55-9.03c53.77-0.04,107.53-0.03,161.3-0.03c114.94,0,229.88,0.01,344.82,0.01
		c10.34,0,15.07,3.04,14.86,9.53c-0.2,6.26-4.8,9.12-14.72,9.12C433.78,500,349.74,499.99,265.7,499.99z"/>
	<path d="M415.44,206.99c-6.13-2.54-11.01-4.07-15.31-6.59c-1.74-1.01-3.12-4.17-3.14-6.36c-0.23-22.64-0.15-45.29-0.15-67.94
		c0-33.23-0.14-66.46,0.12-99.69c0.05-5.97-1.37-8.3-7.7-7.89c-8.43,0.54-16.94,0.48-25.38,0.01c-5.69-0.32-7.19,1.67-7.16,7.16
		c0.2,38.1,0.11,76.19,0.11,114.29c0,17.78-0.08,35.56,0.07,53.34c0.04,4.07-0.74,6.69-5.22,7.88c-4.24,1.13-8.22,3.26-13.13,5.29
		c-0.16-2.45-0.42-4.64-0.42-6.83c-0.02-59.47-0.03-118.95-0.01-178.42c0.01-16.05,5.27-21.24,21.33-21.25
		C371.5,0,383.57,0,395.63,0c14.1,0,19.75,5.43,19.78,19.49c0.08,40.21,0.04,80.43,0.05,120.64c0,19.47-0.01,38.94-0.01,58.42
		C415.44,201.04,415.44,203.54,415.44,206.99z"/>
	<path d="M193.45,254.96c-5.11-1.07-10.21-1.62-14.85-3.38c-1.61-0.61-2.94-4.21-2.96-6.45c-0.21-25.17-0.13-50.35-0.13-75.52
		c0-21.58,0-43.16,0-64.74c0-2.3,0-4.59,0-8.18c-7.8,0-15.08-0.02-22.37,0c-17.45,0.05-17.48,0.06-17.49,17.56
		c-0.02,44-0.09,88.01,0.08,132.01c0.02,5.11-0.89,8.28-6.56,9.28c-3.84,0.67-7.47,2.56-11.78,4.12c-0.17-2.28-0.41-4.09-0.41-5.9
		c-0.02-51.83-0.11-103.66,0.16-155.49c0.02-4.8,1.23-10.45,4-14.1c2.4-3.16,7.74-5.48,11.89-5.66c14.99-0.67,30.03-0.51,45.05-0.2
		c10.12,0.21,15.95,5.85,15.99,15.85c0.19,52.46,0.11,104.93,0.09,157.39C194.15,252.56,193.75,253.57,193.45,254.96z"/>
	<path d="M357.05,306.4c0,45.01,0,90.03,0,135.39c13.28,0,25.91,0,39.51,0c0-44.35,0-88.6,0-132.85c0.49-0.12,0.98-0.24,1.46-0.36
		c5.48,7.62,11.12,15.14,16.33,22.95c1.15,1.73,1.06,4.47,1.06,6.75c0.06,34.29,0.09,68.59,0.02,102.88
		c-0.03,14.24-5.46,19.61-19.54,19.64c-13.34,0.02-26.67,0.06-40.01-0.04c-11.49-0.08-17.46-5.86-17.72-17.66
		c-0.28-12.48-0.07-24.98-0.07-37.47c0-22.65-0.21-45.31,0.17-67.95c0.07-4.32,1.78-9,3.97-12.79c3.85-6.67,8.66-12.79,13.07-19.14
		C355.89,305.97,356.47,306.18,357.05,306.4z"/>
	<path d="M286.18,263.88c0-35.87,0-71.74,0-108.04c-13.5,0-26.27,0-39.83,0c0,44.25,0,88.14,0,133.96
		c-6.82-5.71-12.36-10.11-17.54-14.9c-1.11-1.03-1.24-3.5-1.24-5.31c-0.06-38.08-0.12-76.16,0-114.25
		c0.04-12.8,5.91-18.48,18.73-18.57c13.33-0.1,26.66-0.1,39.99-0.02c12.72,0.08,18.41,5.48,18.48,18.03
		c0.15,26.87,0.07,53.74,0,80.61c-0.01,2.05-0.11,4.48-1.15,6.1c-5.02,7.76-10.37,15.3-15.6,22.92
		C287.4,264.22,286.79,264.05,286.18,263.88z"/>
	<path d="M135.69,346.17c0,32.86,0,63.87,0,95.43c13.38,0,26.12,0,39.7,0c0-35.44,0-70.84,0-108.34
		c6.88,5.78,12.4,10.17,17.54,14.95c1.11,1.03,1.24,3.5,1.24,5.31c0.06,30.05,0.14,60.1-0.04,90.15c-0.07,11.41-6,17.02-17.4,17.1
		c-13.97,0.1-27.94,0.1-41.9,0c-11.26-0.08-17.63-5.81-17.76-16.95c-0.28-24.76-0.13-49.52-0.02-74.28c0.01-1.72,0.76-3.8,1.88-5.09
		C123.92,358.73,129.16,353.24,135.69,346.17z"/>
	<path d="M525.35,307.99c-5.73,0-11.19,0-17.38,0c-0.19-3.01-0.51-5.87-0.52-8.72c-0.04-34.71-0.12-69.41,0.08-104.12
		c0.03-5.55-1.18-7.95-7.34-7.65c-10.53,0.51-21.1,0.14-32.5,0.14c0,26.91,0,53.24,0,79.56c-0.63,0.16-1.26,0.32-1.9,0.49
		c-6.27-12.44-18.73-21.47-17.24-38.21c1.23-13.86,0.15-27.91,0.31-41.88c0.15-12.71,6.14-18.54,18.8-18.59
		c13.54-0.05,27.09-0.1,40.63,0.01c10.81,0.09,17.58,5.87,17.66,16.55c0.3,39.99,0.12,79.99,0.09,119.98
		C526.04,306.15,525.71,306.75,525.35,307.99z"/>
	<path d="M246.61,441.86c13.27,0,25.91,0,39.22,0c0.14-2.65,0.38-5.11,0.38-7.57c0.03-19.89,0.16-39.79-0.08-59.68
		c-0.06-4.77,1.27-7.4,6.06-8.69c4-1.07,7.74-3.09,12.26-4.97c0.15,2.67,0.36,4.7,0.36,6.74c0.02,24.55,0.06,49.1-0.01,73.65
		c-0.04,14.3-5.28,19.42-19.61,19.45c-13.54,0.03-27.09,0.1-40.63-0.02c-9.92-0.09-16.51-5.42-16.7-15.26
		c-0.47-25.17-0.15-50.36-0.12-75.53c0-0.37,0.35-0.74,0.82-1.67c4.93,0.96,10.17,1.54,15.04,3.19c1.41,0.48,2.5,4.02,2.52,6.18
		c0.2,18.83,0.11,37.67,0.14,56.51C246.26,436.65,246.48,439.12,246.61,441.86z"/>
	<path d="M449.9,368.01c5.3,3.34,10.78,6.41,15.75,10.18c1.38,1.05,1.68,4.13,1.69,6.29c0.13,16.29,0.05,32.59,0.09,48.89
		c0.01,2.71,0.23,5.41,0.37,8.44c13.14,0,25.76,0,39.13,0c0.18-2.5,0.5-4.93,0.51-7.36c0.05-13.76,0.19-27.52-0.07-41.27
		c-0.09-4.76,1.49-6.49,6.2-6.08c3.76,0.33,7.57,0.07,10.99,0.07c0.63,0.78,1.11,1.1,1.11,1.42c0.04,19.44,0.47,38.9-0.14,58.32
		c-0.27,8.59-6.69,13.7-15.28,13.8c-15.24,0.18-30.48,0.19-45.71,0c-8.85-0.11-15.2-5.64-15.33-14.45
		c-0.39-25.59-0.16-51.2-0.15-76.8C449.05,369.1,449.44,368.76,449.9,368.01z"/>
	<path d="M65.25,305.15c0-12.83,0-25.4,0-39.16c-7.07,0-13.51,0-19.95,0c-4.65,0-9.33,0.35-13.94-0.07c-5.26-0.48-6.4,1.8-6.34,6.57
		c0.21,18.18-0.13,36.36,0.2,54.53c0.1,5.59-1.53,7.72-7.13,7.11c-3.53-0.38-7.13-0.07-11.34-0.07c-0.13-2.64-0.31-4.67-0.32-6.71
		c-0.03-20.08-0.05-40.16-0.02-60.24c0.02-14.05,5.62-19.73,19.45-19.76c13.32-0.03,26.63-0.06,39.95,0.03
		c11.94,0.09,16.37,5.72,18.1,17.27c2.57,17.19-5.42,28.97-16.85,39.74C66.78,304.65,66.31,304.72,65.25,305.15z"/>
	<path d="M83.64,395.1c0,5.81,0.01,10.58,0,15.36c-0.02,11.62,0.19,23.26-0.15,34.87c-0.28,9.42-6.36,15.28-15.77,15.39
		c-15,0.19-30.01,0.16-45.02,0c-9.29-0.1-15.61-5.8-16.09-15.27c-0.54-10.51-0.12-21.07-0.12-32.1c6.15,0,11.9,0,18.44,0
		c0,9.28,0,18.47,0,28.22c13.49,0,26.23,0,40.01,0c0-9.32,0.35-18.75-0.13-28.14c-0.3-5.83,1.3-9.48,6.93-11.68
		C75.57,400.27,79,397.75,83.64,395.1z"/>
</g>
</svg>
