<?xml version="1.0" encoding="utf-8"?>
<!-- Generator: Adobe Illustrator 26.0.1, SVG Export Plug-In . SVG Version: 6.00 Build 0)  -->
<svg version="1.1" id="Layer_1" xmlns="http://www.w3.org/2000/svg" xmlns:xlink="http://www.w3.org/1999/xlink" x="0px" y="0px"
	 viewBox="0 0 499.91 500" style="enable-background:new 0 0 499.91 500;" xml:space="preserve">
<g>
	<path d="M333.32,33.34c8.12,0,15.56-0.04,22.99,0.01c7.43,0.05,10.28,2.95,10.33,10.49c0.04,7.42,0.01,14.85,0.01,22.84
		c8.19,0,15.95-0.07,23.7,0.02c6.48,0.07,9.6,3.13,9.6,9.62c0.04,46,0.02,91.99,0.01,137.99c0,0.51-0.1,1.03-0.19,1.96
		c-5.23,0-10.49,0-16.46,0c0-22.05,0-44.2,0-66.34c0-22,0-44,0-66.29c-75.03,0-149.59,0-224.98,0c0,1.72,0,3.53,0,5.35
		c0,19.27,0.01,38.53,0,57.8c-0.01,8.92-2.59,11.54-11.37,11.55c-20.98,0.01-41.95,0-63.28,0c0,108.34,0,216.36,0,324.68
		c99.76,0,199.45,0,299.44,0c0.11-2.57,0.22-4.95,0.34-7.68c5.36,0,10.63,0,16.45,0c0,5.71,0.27,11.39-0.08,17.04
		c-0.31,5.02-3.93,7.58-9.97,7.59c-23.08,0.04-46.17,0.02-69.25,0.02c-80.54,0-161.07,0-241.61-0.01c-10,0-12.31-2.28-12.33-12.15
		c-0.01-6.9,0-13.79,0-21.18c-7.74,0-14.98,0.01-22.23,0c-8.42-0.02-11.09-2.73-11.11-11.29c-0.02-7.1,0-14.2,0-22.03
		c-7.65,0-15.04,0.02-22.42-0.01c-8.13-0.03-10.89-2.81-10.89-10.98C0,285.22,0,148.1,0,10.98C0,2.81,2.78,0.01,10.89,0.01
		C114.69,0,218.48,0,322.28,0.01c8.21,0,11.01,2.77,11.04,10.84C333.34,18.11,333.32,25.38,333.32,33.34z M349.72,50.38
		c-100.07,0-199.76,0-299.47,0c0,133.28,0,266.18,0,399.28c5.52,0,10.78,0,16.41,0c0-2.02,0-3.72,0-5.43
		c0-96.86,0.03-193.73-0.09-290.59c-0.01-5.13,1.65-8.8,5.23-12.35C95.11,118.2,118.31,95,141.39,71.69
		c3.58-3.61,7.32-5.12,12.41-5.11c63.36,0.13,126.72,0.09,190.08,0.09c1.86,0,3.73,0,5.84,0C349.72,61.04,349.72,55.9,349.72,50.38z
		 M17.02,16.89c0,133.45,0,266.45,0,399.34c5.63,0,10.89,0,16.31,0c0-3.55,0-6.67,0-9.78c0-120.27,0-240.54,0-360.8
		c0-10,2.27-12.29,12.16-12.29c88.34,0,176.67-0.01,265.01-0.01c1.99,0,3.98,0,5.86,0c0-5.96,0-11.1,0-16.45
		C216.51,16.89,116.95,16.89,17.02,16.89z M141.52,97.05c-14.83,14.82-29.69,29.67-44.26,44.24c14.24,0,29.18,0,44.26,0
		C141.52,126.18,141.52,111.46,141.52,97.05z"/>
	<path d="M448.9,412.3c13.93,13.86,27.93,27.83,41.99,41.74c6.71,6.64,10.27,14.45,8.62,23.93c-1.78,10.25-7.75,17.38-17.68,20.61
		c-9.96,3.24-18.97,0.84-26.38-6.42c-13.27-13-26.32-26.22-39.44-39.37c-1.22-1.22-2.3-2.59-3.61-4.07
		c-31.43,18.5-64.27,23.17-98.79,12.04c-26.78-8.64-47.68-25.16-62.65-48.95c-30.17-47.94-21.52-109.92,20.58-148.5
		c40.61-37.23,103.18-40.14,147.79-7.34C463.71,288.62,483.63,354.53,448.9,412.3z M449.96,350.13
		c0.11-55.15-44.67-100.06-99.83-100.13c-55.2-0.07-100.08,44.66-100.14,99.81c-0.06,54.91,44.61,99.96,99.33,100.16
		C404.87,450.17,449.85,405.54,449.96,350.13z M426.01,439.16c13.44,13.45,26.76,26.81,40.14,40.13c5,4.98,10.52,5.31,14.54,1.06
		c3.87-4.09,3.41-9.33-1.41-14.19c-10.25-10.33-20.56-20.59-30.84-30.89c-3.14-3.14-6.22-6.34-9.21-9.39
		C434.64,430.5,430.51,434.64,426.01,439.16z"/>
	<path d="M108.58,199.66c0-5.55,0-10.69,0-16.08c83.14,0,166.03,0,249.33,0c0,5.19,0,10.46,0,16.08
		C274.98,199.66,191.97,199.66,108.58,199.66z"/>
	<path d="M183.76,141.76c58.2,0,115.96,0,174.14,0c0,5.34,0,10.6,0,16.23c-57.92,0-115.93,0-174.14,0
		C183.76,152.57,183.76,147.19,183.76,141.76z"/>
	<path d="M274.61,241.45c-55.47,0-110.58,0-165.99,0c0-5.35,0-10.48,0-16.05c55.13,0,110.36,0,165.99,0
		C274.61,230.49,274.61,235.75,274.61,241.45z"/>
	<path d="M249.76,433.67c0,5.49,0,10.63,0,16.04c-47.02,0-93.79,0-141,0c0-5.13,0-10.4,0-16.04
		C155.52,433.67,202.42,433.67,249.76,433.67z"/>
	<path d="M108.58,282.98c0-5.54,0-10.68,0-16.07c41.48,0,82.7,0,124.34,0c0,5.18,0,10.45,0,16.07
		C191.66,282.98,150.32,282.98,108.58,282.98z"/>
	<path d="M224.75,392c0,5.51,0,10.65,0,16.05c-38.69,0-77.13,0-116.01,0c0-5.16,0-10.42,0-16.05C147.2,392,185.77,392,224.75,392z"
		/>
	<path d="M108.58,324.64c0-5.54,0-10.68,0-16.07c35.92,0,71.59,0,107.67,0c0,5.18,0,10.44,0,16.07
		C180.55,324.64,144.76,324.64,108.58,324.64z"/>
	<path d="M108.56,366.29c0-5.47,0-10.61,0-16.02c36.02,0,71.82,0,107.86,0c0,5.37,0,10.51,0,16.02
		C180.6,366.29,144.8,366.29,108.56,366.29z"/>
	<path d="M266.66,349.92c-0.05-45.72,37.34-83.24,82.98-83.26c46.14-0.02,83.61,37.22,83.66,83.14
		c0.05,46.08-37.21,83.45-83.27,83.51C304.04,433.37,266.71,396.04,266.66,349.92z M283.33,349.72
		c-0.11,36.72,29.65,66.78,66.25,66.92c36.69,0.14,66.84-29.62,67.05-66.17c0.21-36.74-29.52-66.97-66.03-67.14
		C313.49,283.17,283.45,312.81,283.33,349.72z"/>
	<path d="M314.57,315.4c3.93,3.89,7.6,7.52,11.28,11.15c-15.36,18.57-9.77,38.58,3.94,50.2c-3.09,4.19-6.22,8.43-9.34,12.65
		C297.55,375.39,291.69,336.37,314.57,315.4z"/>
	<path d="M329.78,303.65c6.84-1.51,13.11-2.89,19.9-4.39c0,6.32,0,11.6,0,16.87c-4.26,0.91-8.43,1.8-13.18,2.82
		C334.45,314.29,332.33,309.47,329.78,303.65z"/>
</g>
</svg>
