<?xml version="1.0" encoding="utf-8"?>
<!-- Generator: Adobe Illustrator 26.0.1, SVG Export Plug-In . SVG Version: 6.00 Build 0)  -->
<svg version="1.1" id="Layer_1" xmlns="http://www.w3.org/2000/svg" xmlns:xlink="http://www.w3.org/1999/xlink" x="0px" y="0px"
	 viewBox="0 0 523.32 500" style="enable-background:new 0 0 523.32 500;" xml:space="preserve">
<g>
	<path d="M522.53,153.47c-2.02-3.63-4.14-5.57-6.49-5.92c-0.27-0.04-0.55-0.06-0.85-0.06c-2.78,0-6.29,2.07-7.68,4.52
		c-1.44,2.55-1.44,5.66-1.44,8.15v0.38c-0.02,57.69-0.03,115.38-0.03,173.07c0,47.94-0.01,95.87-0.02,143.81
		c0,1.13,0.02,2.11,0.03,2.98c0.01,0.83,0.03,1.73,0.01,2.39c-0.41,0.02-0.95,0.03-1.62,0.03l-1.43-0.01
		c-0.63-0.01-1.33-0.01-2.11-0.01c-56.25,0.01-112.48,0.01-168.73,0.01c-83.79,0-167.58-0.01-251.37-0.04
		c-3.24,0-6.74-0.3-11.01-0.94c-27.25-4.09-47.78-24.78-52.3-52.71c-4.1-25.28,10.24-52.21,34.09-64.04
		c9.18-4.55,19.48-6.67,32.42-6.67c0.63,0,1.27,0.01,1.9,0.02c1.63,0.02,3.15,0.04,4.55,0.04c7.89,0,14.2-0.37,17.63-5
		c2.94-3.98,3.08-10.02,3.08-20.36c-0.02-38.75-0.02-77.51-0.01-116.26l0-81.81c0-39.42,0-78.84-0.02-118.26
		c-0.01-11.41-5.12-16.56-16.57-16.68L91.9,0.06C89.57,0.03,87.24,0,84.91,0c-3.14,0-5.74,0.05-8.2,0.17
		C43.96,1.69,20.17,17.99,6,48.59c-6.02,12.99-6.01,26.76-6,40.07v0.24c0.04,60.73,0.04,121.46,0.05,182.19
		c0,47.1,0.01,94.2,0.03,141.3c0,1.27-0.01,2.55-0.02,3.83c-0.05,5.4-0.1,10.98,0.75,16.46C6.88,471.69,40.58,500,80.94,500l0.75,0
		c25.38-0.23,52.84-0.33,86.41-0.33c20.17,0,40.34,0.04,60.51,0.07c20.17,0.04,40.35,0.07,60.52,0.07l77.7,0
		c46.64,0,93.27,0,139.91-0.01c11,0,16.23-5.17,16.45-16.25c0.01-0.57,0.01-1.15,0.01-1.72l0-39c0-94.47,0-188.93-0.01-283.39
		c0-0.33,0.03-0.67,0.05-1.02C523.35,156.96,523.47,155.16,522.53,153.47z M94.15,37.15c-0.01,1.99-0.01,3.99-0.01,5.98v293.64
		c0,1.78,0,3.76-0.16,4.67c-0.27,0.04-0.73,0.07-1.47,0.07c-0.82,0-1.82-0.04-3.07-0.1c-2.15-0.1-4.28-0.16-6.34-0.16
		c-20.79,0-37.78,5.35-51.94,16.36c-4.76,3.71-9.43,7.65-13.95,11.46c0-25.77,0.03-51.55,0.06-77.32
		c0.08-69.03,0.16-140.41-0.3-210.62C16.8,54.45,35.25,23.21,69.77,17.84c3.17-0.49,6.64-0.72,10.94-0.72c2.86,0,5.81,0.1,8.67,0.2
		c1.37,0.05,2.75,0.09,4.12,0.13c0.23,0.35,0.46,0.78,0.5,0.95C94.2,24.62,94.17,30.99,94.15,37.15z"/>
	<path d="M443.98,290.39c-2.77-0.87-2.96-1.36-2.86-4.07c0.26-7.37,0.28-15.2,0.04-23.94c-0.43-16.01-11.53-26.82-27.6-26.9
		c-1.36-0.01-2.72-0.02-4.09-0.03c-2.18-0.02-4.37-0.03-6.55-0.03c-2.94,0-5.39,0.03-7.69,0.1l-0.3,0c-0.59,0-0.92-0.06-1.09-0.1
		c-0.04-0.18-0.1-0.56-0.08-1.24c0.16-4.68,0.11-9.4,0.06-13.98c-0.01-1.27-0.02-2.54-0.03-3.82c-0.07-10.61-5.62-16.22-16.04-16.23
		c-26.53-0.02-53.05-0.04-79.57-0.04c-19.47,0-38.95,0.01-58.43,0.02c-10.16,0.01-16.11,5.91-16.33,16.19
		c-0.13,6.37-0.13,12.55,0.02,18.36c0.01,0.36-0.01,0.6-0.03,0.77c-0.14,0.02-0.34,0.03-0.61,0.03l-0.16,0
		c-3.07-0.06-6.23-0.09-9.67-0.09c-3.44,0-6.88,0.03-10.32,0.08c-14.58,0.2-25.46,10.9-25.87,25.45
		c-0.26,9.17-0.26,17.36-0.01,25.03c0.09,2.74-0.19,3.42-3.34,4.41c-19.57,6.12-30.51,26.62-24.91,46.66
		c4.44,15.88,19.96,27.4,36.9,27.4c2.53,0,5.06-0.26,7.52-0.77c15.72-3.25,28.55-17.57,29.84-33.31
		c1.78-21.74-12.15-35.9-26.75-40.28c-2.28-0.68-2.27-0.88-2.22-2.77c0.13-5,0.1-10.07,0.08-14.97c-0.01-3.31-0.03-6.61,0-9.92
		c0.05-6.15,3.36-9.66,9.31-9.87c1.64-0.06,3.41-0.09,5.57-0.09c1.43,0,2.86,0.01,4.29,0.02c1.45,0.01,2.9,0.02,4.34,0.02
		c1.95,0,3.57-0.02,5.1-0.07l0.24,0c0.3,0,0.51,0.02,0.66,0.04c0.03,0.21,0.06,0.56,0.05,1.14c-0.15,5.15-0.16,10.82-0.02,17.82
		c0.21,10.68,5.99,16.34,16.7,16.36l5.4,0.01c8.21,0.02,16.41,0.03,24.62,0.03c10.7,0,19.58-0.03,27.98-0.09l0.13,0
		c1.45,0,1.91,0.2,1.95,0.2c0,0,0,0,0,0c0.03,0.05,0.23,0.46,0.22,1.71c-0.12,23.19-0.13,47.21-0.02,73.44
		c0,0.94-0.1,1.38-0.16,1.56c-0.17,0.05-0.58,0.14-1.42,0.14l-0.22,0c-5.23-0.09-10.74-0.13-16.85-0.13
		c-5.22,0-10.77,0.03-18.01,0.1c-10.47,0.1-16.26,5.81-16.32,16.07c-0.1,19.16-0.11,37.93-0.03,55.78
		c0.05,10.84,5.17,15.91,16.13,15.92c15.22,0.02,30.44,0.04,45.66,0.04c14.59,0,29.18-0.01,43.77-0.04
		c12.12-0.02,17.55-5.47,17.58-17.67c0.04-16.69,0.04-34.15,0-51.9c-0.03-12.59-5.72-18.21-18.47-18.23
		c-4.97-0.01-9.94-0.01-14.94-0.01l-19.53,0c-0.02-0.25-0.03-0.47-0.03-0.68c0-6.94,0-13.89,0.01-20.84
		c0.02-17.24,0.04-35.07-0.13-52.61c-0.02-2.12,0.27-2.6,0.27-2.61c0.02-0.01,0.44-0.29,2.25-0.29l0.27,0
		c8.34,0.12,17.25,0.17,28.05,0.17c7.41,0,14.82-0.03,22.22-0.05l7.73-0.03c9.79-0.03,15.47-5.71,15.57-15.59
		c0.06-5.67,0.11-12.27,0-18.86c-0.01-0.4,0.02-0.67,0.05-0.83c0.14-0.02,0.36-0.05,0.69-0.05l0.13,0c1.76,0.03,3.52,0.04,5.28,0.04
		c1.54,0,3.08-0.01,4.63-0.02c1.53-0.01,3.06-0.02,4.59-0.02c1.06,0,2.13,0,3.19,0.01c8,0.08,11.36,3.34,11.62,11.28
		c0.09,2.98,0.05,6.06,0.02,9.04c-0.05,3.93-0.1,7.99,0.14,12.02c0.21,3.48-0.3,4.61-4.33,5.96c-9.48,3.17-17.12,9.82-21.52,18.72
		c-4.49,9.07-5.13,19.41-1.81,29.12c5.27,15.41,19.71,25.77,35.94,25.76c3.79,0,7.57-0.57,11.23-1.7
		c15.65-4.83,26.31-18.99,26.52-35.23C470.39,309.72,460.36,295.5,443.98,290.39z M453.05,326.49c0,11.49-8.94,20.53-20.45,20.58
		c-11.79,0-21.06-9-21.1-20.48c-0.04-11.35,9.51-21,20.86-21.07h0.13c5.51,0,10.67,2.17,14.54,6.1
		C450.91,315.56,453.05,320.84,453.05,326.49z M376.87,268.51c0.02,1.64-0.2,2.11-0.18,2.11c-0.06,0.03-0.51,0.26-2.12,0.26
		c0,0,0,0,0,0c-21.28-0.07-43.5-0.1-66.05-0.1c-21.06,0-43.19,0.03-65.81,0.09c-1.49,0-1.92-0.22-1.95-0.22c0,0,0,0,0,0
		c-0.02-0.03-0.24-0.44-0.23-1.8c0.14-19.28,0.13-35.07-0.03-49.69c-0.02-1.38,0.22-1.79,0.21-1.79c0.05-0.04,0.49-0.29,2.33-0.29
		l0.15,0c9.25,0.06,19.1,0.09,31.94,0.09c5.62,0,33.85-0.02,33.85-0.02c5.72,0,11.43,0.01,17.15,0.02
		c5.72,0.01,11.44,0.02,17.16,0.02c12.26,0,21.72-0.04,30.65-0.14l0.22,0c1.99,0,2.42,0.31,2.43,0.31c0,0,0.34,0.46,0.3,2.53
		C376.64,234.24,376.63,249.69,376.87,268.51z M265.63,378.62l0.02,3.31c3.66,0.01,7.31,0.01,10.97,0.01
		c5.37,0,27.09-0.02,27.09-0.02s24.6-0.02,30.63-0.02c4.84,0,9.68,0,14.52,0.01c1.65,0,3.49,0.01,4.36,0.15
		c0.14,0.88,0.14,2.78,0.14,4.63c0,5.52,0,11.03-0.01,16.55c-0.01,10.11-0.01,20.22,0.01,30.34c0,1.03-0.05,1.54-0.11,1.79
		c-0.17,0.04-0.47,0.08-0.98,0.08h0c-20.79-0.09-41.93-0.1-62.37-0.1c-8.45,0-16.91,0-25.36-0.01l0.01-11.54
		c0.01-14.16,0.02-27.53-0.05-41.2c0-0.27,0.02-0.47,0.03-0.6c0.2-0.03,0.54-0.07,1.09-0.07V378.62L265.63,378.62z M164.18,326.36
		c0.01-11.29,9.57-20.84,20.86-20.84l0.16,0c11.52,0.09,20.53,9.4,20.51,21.19c-0.02,11.41-9.03,20.34-20.55,20.34
		C173.39,347.04,164.17,337.94,164.18,326.36z"/>
	<path d="M154.5,169.8c3.52,0.1,7.23,0.14,12.02,0.14c2.31,0,4.62-0.01,6.93-0.02c2.3-0.01,4.6-0.02,6.9-0.02l165.74,0
		c25.75,0,51.5,0,77.25,0.01c0.96,0,2,0.11,3.1,0.22c1.21,0.12,2.47,0.25,3.75,0.25c1.52,0,2.83-0.19,4.02-0.57
		c23.95-7.71,43.87-14.4,62.67-21.05c3.51-1.24,6.04-4.03,6.94-7.66c0.93-3.75-0.08-7.71-2.71-10.58c-1.93-2.11-4.82-3.8-8.83-5.17
		c-15.29-5.24-32.62-11.18-49.7-16.52c-5.53-1.73-11.41-2.65-17.01-2.68c-26.37-0.12-52.74-0.13-72.76-0.13
		c-10.07,0-50.35,0.02-60.42,0.02l-76.28-0.01c-19.59,0-39.17,0.01-58.76,0.04c-17.17,0.02-27.86,10.77-27.91,28.04l0,0.98
		c-0.01,2.95-0.02,6,0.03,9.01C129.72,158.36,140.48,169.4,154.5,169.8z M441.6,149.39v-22.83l34.11,11.37L441.6,149.39z
		 M163.53,123.2c0.55,0,0.95,0.01,1.24,0.03c0.04,0.76,0.02,1.91,0.01,2.97c-0.02,1.48-0.04,3.33,0.01,5.59
		c0.02,1.08,0.03,2.16,0.02,3.23h-0.04v3.31c0,1.36-0.01,2.71-0.01,4.07c-0.02,3.21-0.04,6.53,0.05,9.81c0.01,0.23,0,0.41-0.01,0.55
		c-0.02,0-0.25,0-0.34-0.01c-0.86-0.05-1.78-0.07-2.89-0.07c-0.69,0-1.39,0.01-2.08,0.02c-0.67,0.01-1.34,0.02-2,0.02
		c-0.47,0-0.93,0-1.4-0.01c-5.83-0.14-9.22-3.4-9.54-9.2c-0.21-3.77-0.21-7.54-0.01-11.21c0.32-5.66,3.86-9.04,9.45-9.04l1.33,0.01
		c1.55,0,2.88-0.02,4.03-0.05C162.17,123.22,162.9,123.2,163.53,123.2z M185.46,119.8l0.08,3.31c49.35,0.11,98.3,0.12,143.85,0.12
		l93.59,0v29.5l-83.34,0c-49.16,0-101.85,0.02-154.16,0.13c-3.02,0-3.51-0.43-3.55-0.48c0,0-0.42-0.52-0.25-2.88
		c0.56-7.79,0.55-15.56-0.01-23.08c-0.17-2.34,0.23-2.85,0.23-2.85c0.04-0.05,0.52-0.46,3.57-0.46V119.8L185.46,119.8z"/>
	<path d="M217,385.59c0.07-2.56-0.66-4.64-2.17-6.19c-1.71-1.76-4.21-2.62-7.64-2.62l-0.2,0c-2.93,0.03-5.87,0.03-8.8,0.03
		c-2.06,0-12.65-0.02-12.65-0.02c-2.2,0-4.41,0.01-6.61,0.02c-2.19,0.01-4.39,0.02-6.58,0.02c-3.62,0-6.58-0.02-9.32-0.08l-0.32,0
		c-5.75,0-9.54,3.25-9.66,8.27c-0.07,3.07,1.17,5,2.22,6.08c1.76,1.8,4.44,2.75,7.75,2.75h0.11c7.09-0.05,14.19-0.06,21.28-0.06
		c7.58,0,15.16,0.02,22.81,0.05C215.86,393.84,216.94,388.07,217,385.59z"/>
	<path d="M462.09,391.25c1.04-1.06,2.28-2.98,2.23-6.11c-0.08-5.23-3.66-8.35-9.59-8.35l-0.16,0c-3.08,0.03-6.15,0.03-9.23,0.03
		l-12.77-0.01c-2.18,0-4.36,0.01-6.54,0.01c-2.23,0.01-4.46,0.01-6.69,0.01c-3.1,0-6.21-0.01-9.31-0.05l-0.19,0
		c-3,0-5.49,0.92-7.2,2.66c-1.52,1.55-2.3,3.64-2.25,6.04c0.1,5.09,3.92,8.38,9.72,8.38h0.11c7.05-0.05,14.1-0.06,21.15-0.06
		c5.54,0,11.09,0.01,16.63,0.02l6.83,0.01C457.97,393.82,460.41,392.96,462.09,391.25z"/>
	<path d="M197.21,400.43c-4.03-0.29-8.11-0.44-12.15-0.44c-4.18,0-8.38,0.16-12.51,0.47c-3.76,0.29-6.89,5.38-7.3,8.62
		c-0.5,3.9,5.15,7.36,7.77,7.84c1.56,0.28,3.24,0.42,5.29,0.42c1.17,0,2.35-0.04,3.53-0.09c0.61-0.02,1.23-0.05,1.84-0.06h1.45
		c1.04,0,2.09,0.05,3.14,0.09c1.11,0.05,2.26,0.1,3.42,0.1c1.97,0,3.59-0.15,5.09-0.46c2.42-0.51,4.12-2.23,5.62-3.74
		c0.52-0.52,1.01-1.02,1.46-1.4l2.55-2.11l-2.12-2.55c-0.38-0.45-0.82-1.14-1.25-1.8C201.64,403.11,200.03,400.63,197.21,400.43z"/>
	<path d="M444.38,400.42c-3.99-0.3-8.05-0.45-12.06-0.45c-4.02,0-8.07,0.15-12.04,0.46c-2.8,0.21-4.47,2.6-5.94,4.7
		c-0.47,0.67-0.92,1.31-1.31,1.76l-2.25,2.53l2.57,2.2c0.45,0.39,0.94,0.9,1.46,1.43c1.49,1.56,3.18,3.32,5.63,3.86
		c1.5,0.33,3.12,0.48,5.1,0.48c1.16,0,2.31-0.05,3.42-0.1c1.04-0.05,2.09-0.09,3.14-0.09c1.09,0,2.18,0.05,3.28,0.09
		c1.16,0.05,2.37,0.1,3.57,0.1c2.06,0,3.75-0.15,5.32-0.47c2.47-0.5,4.14-2.31,5.61-3.91c0.5-0.54,0.98-1.06,1.41-1.44l2.49-2.19
		l-2.19-2.49c-0.39-0.44-0.83-1.08-1.29-1.75C448.83,403.01,447.18,400.63,444.38,400.42z"/>
	<path d="M347.7,223.4l-5.9,0c-12.81,0.01-25.63,0.01-38.45,0.01c-11.11,0-22.21,0-33.35-0.02c-9.6,0-10.84,5.93-10.93,8.48
		c-0.11,3.05,1.08,4.93,2.09,5.98c2.38,2.47,5.98,2.75,8.48,2.75l0.15,0c5.83-0.03,11.66-0.04,17.49-0.04l21.61,0.01l3.31-0.02
		l18.24,0c5.85,0,11.7,0,17.63,0.01c2.79,0,5.94-0.3,8.13-2.52c1.43-1.45,2.14-3.41,2.12-5.82
		C358.27,229.57,357.18,223.4,347.7,223.4z"/>
	<path d="M336.33,247.4L336.33,247.4c-3.96,0.01-7.92,0.01-11.88,0.01l-12.36,0v-0.04l-19.06,0c-3.94,0-7.87,0-11.89-0.01
		c-2.58,0-5.82,0.28-8.04,2.5c-1.45,1.45-2.18,3.43-2.17,5.87c0.01,5.48,3.8,8.77,10.12,8.79c10.01,0.03,20.01,0.04,30.02,0.04
		c8.37,0,16.75-0.01,25.12-0.02c8.69-0.02,10.12-5.36,10.2-8.55c0.06-2.55-0.64-4.6-2.1-6.09
		C342.13,247.68,338.95,247.4,336.33,247.4z"/>
	<path d="M285.95,405.81c7.55,0.06,15.31,0.09,23.06,0.09c7.25,0,14.69-0.03,22.13-0.08c5.81-0.04,9.56-3.5,9.54-8.81
		c-0.01-2.49-0.97-8.28-9.78-8.28c-3.16,0.01-6.32,0.01-9.48,0.01l-10.38,0c0,0-6.34,0.01-8.44,0.01c-2.31,0.01-4.62,0.01-6.93,0.01
		c-3.1,0-6.21-0.01-9.31-0.04l-0.18,0c-5.53,0-9.16,2.99-9.48,7.8c-0.17,2.51,0.57,4.73,2.14,6.43
		C280.54,404.76,283.06,405.78,285.95,405.81z"/>
	<path d="M326.38,416.64c-1.52-1.89-3.25-4.04-5.95-4.24c-3.92-0.28-7.89-0.43-11.81-0.43c-3.93,0-7.9,0.15-11.78,0.43
		c-2.72,0.2-4.45,2.38-5.97,4.3c-0.49,0.62-0.96,1.21-1.37,1.61l-2.41,2.39l2.44,2.35c0.43,0.41,0.89,0.96,1.37,1.54
		c1.44,1.72,3.08,3.67,5.59,4.22c1.57,0.34,3.27,0.5,5.36,0.5c1.22,0,2.43-0.05,3.6-0.1c1.09-0.05,2.19-0.1,3.3-0.1
		c1.06,0,2.13,0.05,3.26,0.1c1.15,0.05,2.35,0.1,3.55,0.1c2.1,0,3.81-0.16,5.38-0.51c2.53-0.56,4.11-2.56,5.52-4.32
		c0.47-0.59,0.91-1.14,1.31-1.55l2.34-2.37l-2.37-2.33C327.34,417.83,326.87,417.25,326.38,416.64z"/>
</g>
</svg>
