<?xml version="1.0" encoding="utf-8"?>
<!-- Generator: Adobe Illustrator 26.0.1, SVG Export Plug-In . SVG Version: 6.00 Build 0)  -->
<svg version="1.1" id="Layer_1" xmlns="http://www.w3.org/2000/svg" xmlns:xlink="http://www.w3.org/1999/xlink" x="0px" y="0px"
	 viewBox="0 0 325.47 330.86" style="enable-background:new 0 0 325.47 330.86;" xml:space="preserve">
<style type="text/css">
	.st0{fill:#E1DEF8;}
	.st1{fill:#EDECF8;}
	.st2{enable-background:new    ;}
	.st3{clip-path:url(#SVGID_00000152949000401767142800000010564247328102618022_);enable-background:new    ;}
	.st4{fill:#252956;}
	.st5{clip-path:url(#SVGID_00000057827230525085371120000006692808201279214509_);enable-background:new    ;}
	.st6{fill:#3C4384;}
	.st7{opacity:0.4;fill:#E1DEF8;}
	.st8{clip-path:url(#SVGID_00000016755519128452306670000014430259112274340767_);enable-background:new    ;}
	.st9{clip-path:url(#SVGID_00000108988167343964400270000016261357116434441915_);enable-background:new    ;}
	.st10{clip-path:url(#SVGID_00000089575395120113439620000014302043518422378627_);enable-background:new    ;}
	.st11{fill:#323974;}
	.st12{clip-path:url(#SVGID_00000165199600640176154370000015089584028617591469_);enable-background:new    ;}
	.st13{fill:#272E67;}
	.st14{fill:#FE8EA7;}
	.st15{fill:#FF698D;}
	.st16{fill:#E9ECF5;}
	.st17{fill:#FE486E;}
	.st18{fill:#BFBEED;}
	.st19{fill:#23232A;}
	.st20{fill:#FFC400;}
	.st21{fill:#FFA200;}
	.st22{fill:#FF9900;}
	.st23{fill:#CDCCF5;}
	.st24{fill:#F2F2FC;}
	.st25{fill:#A7A6DF;}
	.st26{opacity:0.5;fill:#EDECF8;}
	.st27{fill:#4A5298;}
	.st28{fill:#5A63AF;}
	.st29{fill:#666FBE;}
	.st30{fill:#B4A4F5;}
</style>
<g>
	<polygon class="st0" points="325.47,209.7 238.31,260.02 115.58,189.16 202.74,138.84 	"/>
	<polygon class="st1" points="230.48,238.8 165.66,299.33 18.03,246.63 82.85,186.1 	"/>
	<g>
		<g>
			<g class="st2">
				<g>
					<defs>
						<path id="SVGID_1_" d="M98,227.07l0.05,15.28c-0.02-6.74-4.51-13.45-13.44-18.54c-17.76-10.1-46.34-9.93-63.85,0.4
							c-8.7,5.13-13.03,11.8-13.01,18.45L7.7,227.38c-0.02-6.65,4.31-13.32,13.01-18.45c17.51-10.32,46.09-10.5,63.85-0.4
							C93.49,213.62,97.98,220.33,98,227.07z"/>
					</defs>
					<use xlink:href="#SVGID_1_"  style="overflow:visible;fill:#252956;"/>
					<clipPath id="SVGID_00000035504838822024845940000004665983650504055972_">
						<use xlink:href="#SVGID_1_"  style="overflow:visible;"/>
					</clipPath>
					<g style="clip-path:url(#SVGID_00000035504838822024845940000004665983650504055972_);enable-background:new    ;">
						<path class="st4" d="M98,227.07l0.05,15.28c-0.02-6.74-4.51-13.45-13.44-18.54c-17.76-10.1-46.34-9.93-63.85,0.4
							c-8.7,5.13-13.03,11.8-13.01,18.45L7.7,227.38c-0.02-6.65,4.31-13.32,13.01-18.45c17.51-10.32,46.09-10.5,63.85-0.4
							C93.49,213.62,97.98,220.33,98,227.07z"/>
					</g>
				</g>
				<g>
					<defs>
						<path id="SVGID_00000085967454268127405860000001918795329856769675_" d="M105.71,227.04l0.03,12.25
							c0.03,7.79-5.04,15.59-15.22,21.59c-20.5,12.09-53.96,12.3-74.75,0.47c-10.46-5.95-15.71-13.82-15.74-21.7L0,227.4
							c0.03,7.89,5.28,15.75,15.74,21.7c20.78,11.83,54.25,11.61,74.75-0.48C100.67,242.63,105.74,234.83,105.71,227.04z"/>
					</defs>
					<use xlink:href="#SVGID_00000085967454268127405860000001918795329856769675_"  style="overflow:visible;fill:#252956;"/>
					<clipPath id="SVGID_00000011021144655411192350000014829542752374964386_">
						<use xlink:href="#SVGID_00000085967454268127405860000001918795329856769675_"  style="overflow:visible;"/>
					</clipPath>
					<g style="clip-path:url(#SVGID_00000011021144655411192350000014829542752374964386_);enable-background:new    ;">
						<path class="st4" d="M105.71,227.04l0.03,12.25c0.03,7.79-5.04,15.59-15.22,21.59c-20.5,12.09-53.96,12.3-74.75,0.47
							c-10.46-5.95-15.71-13.82-15.74-21.7L0,227.4c0.03,7.89,5.28,15.75,15.74,21.7c20.78,11.83,54.25,11.61,74.75-0.48
							C100.67,242.63,105.74,234.83,105.71,227.04z"/>
					</g>
				</g>
				<g>
					<path class="st6" d="M89.97,205.34c20.78,11.83,21.01,31.21,0.52,43.29c-20.5,12.09-53.96,12.3-74.75,0.48
						c-20.78-11.83-21.01-31.21-0.52-43.3C35.72,193.73,69.19,193.52,89.97,205.34z M21.15,245.92c17.75,10.1,46.33,9.92,63.85-0.41
						c17.51-10.32,17.31-26.88-0.44-36.98c-17.76-10.1-46.34-9.92-63.85,0.4C3.2,219.26,3.39,235.81,21.15,245.92z"/>
				</g>
			</g>
		</g>
		<path class="st7" d="M97.62,230.56C96.37,236,92.16,241.28,85,245.51c-17.51,10.34-46.09,10.52-63.84,0.41
			c-7.37-4.19-11.72-9.49-13.03-14.98c1.24-5.45,5.45-10.73,12.63-14.96c17.51-10.32,46.09-10.5,63.85-0.4
			C91.97,219.77,96.31,225.06,97.62,230.56z"/>
		<g>
			<g class="st2">
				<g class="st2">
					<defs>
						<path id="SVGID_00000127024004290436609550000007550089652105516446_" class="st2" d="M125.89,269.19l-32.92-18.98
							c-0.78-0.45-1.86-0.38-3.05,0.31l32.92,18.98C124.03,268.81,125.11,268.74,125.89,269.19z"/>
					</defs>
					<use xlink:href="#SVGID_00000127024004290436609550000007550089652105516446_"  style="overflow:visible;fill:#E1DEF8;"/>
					<clipPath id="SVGID_00000074440701807110050250000014983504670201044900_">
						<use xlink:href="#SVGID_00000127024004290436609550000007550089652105516446_"  style="overflow:visible;"/>
					</clipPath>
					<g style="clip-path:url(#SVGID_00000074440701807110050250000014983504670201044900_);enable-background:new    ;">
						<path class="st0" d="M125.89,269.19l-32.92-18.98c-0.78-0.45-1.86-0.38-3.05,0.31l32.92,18.98
							C124.03,268.81,125.11,268.74,125.89,269.19z"/>
					</g>
				</g>
				<g class="st2">
					<defs>
						<path id="SVGID_00000126316095075545333790000009171278594802483869_" class="st2" d="M86.94,260.68l32.92,18.98
							c-0.77-0.45-1.25-1.39-1.26-2.74c-0.02-2.72,1.88-6.03,4.24-7.41l-32.92-18.98c-2.36,1.37-4.26,4.69-4.24,7.41
							C85.69,259.28,86.17,260.23,86.94,260.68z"/>
					</defs>
					<use xlink:href="#SVGID_00000126316095075545333790000009171278594802483869_"  style="overflow:visible;fill:#E1DEF8;"/>
					<clipPath id="SVGID_00000070807883516460482960000009484095427770811297_">
						<use xlink:href="#SVGID_00000126316095075545333790000009171278594802483869_"  style="overflow:visible;"/>
					</clipPath>
					<g style="clip-path:url(#SVGID_00000070807883516460482960000009484095427770811297_);enable-background:new    ;">
						<path class="st0" d="M122.84,269.5l-32.92-18.98c-2.36,1.37-4.26,4.69-4.24,7.41c0.01,1.35,0.49,2.3,1.26,2.74l32.92,18.98
							c-0.77-0.45-1.25-1.39-1.26-2.74C118.58,274.19,120.48,270.88,122.84,269.5z"/>
					</g>
				</g>
				<g>
					<path class="st0" d="M122.84,269.5c-2.36,1.37-4.26,4.69-4.24,7.41c0.02,2.72,1.94,3.81,4.3,2.43
						c2.36-1.37,4.26-4.69,4.24-7.41C127.13,269.22,125.2,268.13,122.84,269.5z"/>
				</g>
			</g>
		</g>
		<g>
			<g class="st2">
				<g class="st2">
					<defs>
						<path id="SVGID_00000180332120280720938980000017329684883603401663_" class="st2" d="M186.41,295.69l-72.47-39.05
							c-1.43-0.82-3.41-0.69-5.59,0.58l71.35,39.17C182.32,294.86,184.69,294.7,186.41,295.69z"/>
					</defs>
					<use xlink:href="#SVGID_00000180332120280720938980000017329684883603401663_"  style="overflow:visible;fill:#323974;"/>
					<clipPath id="SVGID_00000025408411755699592880000009480230463965466798_">
						<use xlink:href="#SVGID_00000180332120280720938980000017329684883603401663_"  style="overflow:visible;"/>
					</clipPath>
					<g style="clip-path:url(#SVGID_00000025408411755699592880000009480230463965466798_);enable-background:new    ;">
						<path class="st11" d="M186.41,295.69l-72.47-39.05c-1.43-0.82-3.41-0.69-5.59,0.58l71.35,39.17
							C182.32,294.86,184.69,294.7,186.41,295.69z"/>
					</g>
				</g>
				<g class="st2">
					<defs>
						<path id="SVGID_00000155122690550126190640000008923803739143528894_" class="st2" d="M102.93,275.87l70.26,42.9
							c-1.7-0.97-2.76-3.06-2.79-6.03c-0.05-5.99,4.11-13.3,9.3-16.34l-71.35-39.17c-4.32,2.53-7.79,8.63-7.75,13.62
							C100.63,273.32,101.51,275.06,102.93,275.87z"/>
					</defs>
					<use xlink:href="#SVGID_00000155122690550126190640000008923803739143528894_"  style="overflow:visible;fill:#323974;"/>
					<clipPath id="SVGID_00000157285090437891917300000014664271134351273100_">
						<use xlink:href="#SVGID_00000155122690550126190640000008923803739143528894_"  style="overflow:visible;"/>
					</clipPath>
					<g style="clip-path:url(#SVGID_00000157285090437891917300000014664271134351273100_);enable-background:new    ;">
						<path class="st6" d="M170.4,312.74c-0.05-5.99,4.11-13.3,9.3-16.34l-71.35-39.17c-4.32,2.53-7.79,8.63-7.75,13.62
							L170.4,312.74z"/>
						<path class="st11" d="M100.61,270.84c0.02,2.48,0.91,4.22,2.32,5.03l70.26,42.9c-1.7-0.97-2.76-3.06-2.79-6.03L100.61,270.84z
							"/>
					</g>
				</g>
				<g>
					<path class="st13" d="M179.7,296.39c-5.19,3.04-9.35,10.36-9.3,16.34c0.05,5.99,4.31,8.37,9.5,5.33
						c5.19-3.04,9.36-10.36,9.3-16.34C189.15,295.74,184.9,293.35,179.7,296.39z"/>
				</g>
			</g>
		</g>
	</g>
	<g>
		<g>
			<g>
				<path class="st14" d="M140.21,7.45l13.31-5.16C167.15-3,184.29,0.76,201.65,14.8l-13.31,5.16
					C170.99,5.92,153.85,2.16,140.21,7.45z"/>
			</g>
			<g>
				<path class="st15" d="M224.39,185.14l-13.31,5.16c13.47-5.22,23.52-19.25,27-40.9c7.01-43.59-15.26-101.54-49.75-129.44
					l13.31-5.16c34.49,27.9,56.76,85.85,49.75,129.44C247.91,165.89,237.86,179.92,224.39,185.14z"/>
			</g>
			<g>
				<path class="st14" d="M188.34,19.96l13.31-5.16c34.49,27.9,56.76,85.85,49.75,129.44c-3.48,21.65-13.54,35.68-27,40.9
					l-13.31,5.16c13.47-5.22,23.52-19.25,27-40.9C245.1,105.81,222.83,47.86,188.34,19.96z"/>
			</g>
			<g>
				<path class="st15" d="M188.34,19.96c34.49,27.9,56.76,85.85,49.75,129.44c-7.01,43.58-40.65,56.3-75.14,28.39
					c-34.49-27.9-56.76-85.85-49.75-129.44C120.21,4.76,153.85-7.95,188.34,19.96z"/>
				<path class="st16" d="M185.88,35.23c27.81,22.5,45.77,69.23,40.12,104.38c-5.65,35.15-32.78,45.4-60.59,22.9
					c-27.81-22.5-45.77-69.23-40.12-104.38C130.95,22.98,158.07,12.73,185.88,35.23z"/>
				<path class="st15" d="M183.18,52.01c20.48,16.57,33.7,50.98,29.54,76.86c-4.16,25.88-24.14,33.43-44.61,16.86
					c-20.48-16.57-33.7-50.98-29.54-76.85C142.73,42.99,162.71,35.45,183.18,52.01z"/>
				<path class="st16" d="M180.67,67.62c13.66,11.05,22.48,34,19.7,51.26c-2.78,17.26-16.1,22.29-29.75,11.24
					c-13.66-11.05-22.48-34-19.7-51.26C153.69,61.6,167.02,56.57,180.67,67.62z"/>
				<path class="st15" d="M178.43,81.55c7.57,6.13,12.46,18.85,10.92,28.42c-1.54,9.57-8.92,12.36-16.49,6.23
					c-7.57-6.13-12.46-18.85-10.92-28.42C163.48,78.21,170.86,75.42,178.43,81.55z"/>
			</g>
		</g>
		<g>
			<path class="st17" d="M110.12,92.92c-15.17-6.13-30.2-14.2-42.97-14.5c-12.77-0.3-11.19,7.05-5.17,13.37L110.12,92.92z"/>
			<path class="st18" d="M169.17,93.3l-32.75-2.49c0.26,0,0.52,0.12,0.75,0.36l32,2.23V93.3z"/>
			<path class="st1" d="M169.17,93.41l-32-2.23c0.12,0.12,0.23,0.27,0.33,0.45l31.67,1.93V93.41z"/>
			<path class="st1" d="M169.17,94.48v-0.93l-31.67-1.93c0.4,0.74,0.51,1.78,0.32,2.68L169.17,94.48z"/>
			<path class="st18" d="M169.17,94.48l-31.35-0.17c-0.08,0.39-0.22,0.76-0.4,1.07c-0.31,0.51-0.71,0.75-1.1,0.75l32.85-1.03V94.48z
				"/>
			<path class="st19" d="M137.5,91.63c0.58,1.06,0.54,2.74-0.09,3.76c-0.62,1.02-1.6,0.99-2.17-0.07c-0.57-1.05-0.54-2.73,0.09-3.75
				C135.96,90.54,136.93,90.57,137.5,91.63z"/>
			<path class="st20" d="M125.88,89.39l21.4,0.44c0.57,0.01,1.14,0.4,1.56,1.17l-21.4-0.44C127.02,89.79,126.45,89.4,125.88,89.39z"
				/>
			<g>
				<path class="st20" d="M125.88,89.39l21.4,0.44c0.38,0.01,0.75,0.18,1.09,0.52l-21.4-0.44C126.63,89.57,126.26,89.4,125.88,89.39
					z"/>
				<path class="st20" d="M126.96,89.91l21.4,0.44c0.17,0.17,0.33,0.39,0.48,0.66l-21.4-0.44C127.3,90.3,127.14,90.08,126.96,89.91z
					"/>
			</g>
			<g>
				<path class="st20" d="M147.12,97.54l-21.4-0.44c0.57,0.01,1.15-0.35,1.6-1.09c0.91-1.48,0.96-3.92,0.13-5.45l21.4,0.44
					c0.84,1.53,0.78,3.97-0.13,5.45C148.26,97.19,147.69,97.55,147.12,97.54z"/>
			</g>
			<g>
				<path class="st20" d="M127.44,90.56l21.4,0.44c0.58,1.07,0.73,2.58,0.46,3.9l-21.4-0.44C128.17,93.14,128.02,91.63,127.44,90.56
					z"/>
				<path class="st21" d="M127.9,94.46l21.4,0.44c-0.12,0.57-0.31,1.11-0.59,1.56c-0.45,0.74-1.03,1.1-1.6,1.09l-21.4-0.44
					c0.57,0.01,1.15-0.35,1.6-1.09C127.59,95.57,127.78,95.03,127.9,94.46z"/>
			</g>
			<g>
				<path class="st22" d="M127.44,90.56c0.84,1.53,0.78,3.98-0.13,5.45c-0.91,1.48-2.32,1.44-3.16-0.09
					c-0.84-1.53-0.78-3.97,0.13-5.46C125.19,88.99,126.6,89.03,127.44,90.56z"/>
				<path class="st17" d="M110.37,92.82c-15.44,5.42-30.83,12.77-43.6,12.47c-12.77-0.3-10.85-7.56-4.54-13.6L110.37,92.82z"/>
				<path class="st14" d="M62.08,91.45l63.4-1.24c0.44,0.01,0.87,0.31,1.2,0.9L62.08,91.45z"/>
			</g>
			<g>
				<path class="st14" d="M62.08,91.45l63.4-1.24c0.29,0.01,0.58,0.14,0.83,0.4L62.08,91.45z"/>
				<path class="st15" d="M62.08,91.45l64.23-0.85c0.13,0.13,0.26,0.3,0.36,0.5L62.08,91.45z"/>
			</g>
			<g>
				<path class="st15" d="M125.36,96.11l-63.28-4.66l64.59-0.35c0.64,1.17,0.6,3.04-0.1,4.17
					C126.23,95.84,125.79,96.11,125.36,96.11z"/>
			</g>
			<g>
				<path class="st15" d="M62.08,91.45l64.59-0.35c0.45,0.82,0.56,1.97,0.36,2.98L62.08,91.45z"/>
				<path class="st14" d="M62.08,91.45l64.95,2.64c-0.09,0.44-0.24,0.85-0.45,1.19c-0.34,0.56-0.78,0.84-1.22,0.83L62.08,91.45z"/>
			</g>
			<g>
				<path class="st15" d="M110.09,91.28c-8.5-5.97-14.63-13.84-27.4-14.13c-12.77-0.3-19.5,8.15-20.61,14.3L110.09,91.28z"/>
				<path class="st14" d="M110.02,93.89c-8.77,5.57-14.99,12.01-27.76,11.71c-12.77-0.3-19.29-7.76-20.11-13.96L110.02,93.89z"/>
			</g>
		</g>
		<g>
			<path class="st17" d="M128.65,126.78c-16.14,2.65-33.18,3.58-44.24,9.97c-11.06,6.39-5.89,11.84,2.54,14.11L128.65,126.78z"/>
			<path class="st18" d="M174.41,98.87l-24.39,12.43c0.23-0.13,0.51-0.16,0.82-0.08l23.57-12.19V98.87z"/>
			<path class="st1" d="M174.41,99.02l-23.57,12.19c0.16,0.04,0.34,0.11,0.52,0.22l23.05-12.18V99.02z"/>
			<path class="st1" d="M174.41,99.25l-23.05,12.18c0.73,0.42,1.36,1.25,1.67,2.13l21.38-12.86V99.25z"/>
			<path class="st18" d="M174.41,100.69l-21.38,12.86c0.14,0.38,0.21,0.76,0.21,1.13c0,0.59-0.21,1.01-0.55,1.21l21.72-14.18V100.69
				z"/>
			<path class="st19" d="M151.36,111.43c1.04,0.6,1.88,2.06,1.88,3.25c0,1.2-0.85,1.68-1.89,1.08c-1.04-0.6-1.88-2.06-1.88-3.25
				C149.48,111.31,150.32,110.83,151.36,111.43z"/>
			<path class="st20" d="M140.27,115.56l18.51-10.76c0.5-0.29,1.19-0.25,1.95,0.19l-18.51,10.76
				C141.45,115.32,140.77,115.27,140.27,115.56z"/>
			<g>
				<path class="st20" d="M140.27,115.56l18.51-10.76c0.33-0.19,0.74-0.24,1.2-0.12l-18.51,10.76
					C141.01,115.33,140.6,115.37,140.27,115.56z"/>
				<path class="st20" d="M141.46,115.44l18.51-10.76c0.24,0.06,0.49,0.16,0.75,0.31l-18.51,10.76
					C141.95,115.6,141.7,115.5,141.46,115.44z"/>
			</g>
			<g>
				<path class="st20" d="M162.65,111.48l-18.51,10.76c0.49-0.29,0.8-0.89,0.8-1.76c0.01-1.73-1.21-3.85-2.73-4.72L160.72,105
					c1.51,0.87,2.73,2.99,2.73,4.72C163.45,110.59,163.14,111.19,162.65,111.48z"/>
			</g>
			<g>
				<path class="st20" d="M142.21,115.75L160.72,105c1.05,0.61,1.97,1.82,2.42,3.09l-18.51,10.76
					C144.18,117.58,143.27,116.36,142.21,115.75z"/>
				<path class="st21" d="M144.63,118.84l18.51-10.76c0.2,0.55,0.31,1.11,0.31,1.64c0,0.86-0.31,1.47-0.8,1.76l-18.51,10.76
					c0.49-0.29,0.8-0.89,0.8-1.76C144.94,119.95,144.83,119.39,144.63,118.84z"/>
			</g>
			<g>
				<path class="st22" d="M142.21,115.75c1.51,0.87,2.73,2.99,2.73,4.72c-0.01,1.74-1.23,2.44-2.75,1.57
					c-1.51-0.87-2.73-2.99-2.73-4.73C139.47,115.58,140.7,114.88,142.21,115.75z"/>
				<path class="st17" d="M128.81,126.56c-10.37,12.65-19.69,26.94-30.75,33.33c-11.06,6.38-13.2-0.82-10.95-9.25L128.81,126.56z"/>
				<path class="st14" d="M86.85,150.51l53.5-34.03c0.38-0.22,0.91-0.19,1.49,0.15L86.85,150.51z"/>
			</g>
			<g>
				<path class="st14" d="M86.85,150.51l53.5-34.03c0.25-0.15,0.56-0.18,0.92-0.09L86.85,150.51z"/>
				<path class="st14" d="M86.85,150.51l54.42-34.13c0.18,0.05,0.37,0.12,0.57,0.24L86.85,150.51z"/>
			</g>
			<g>
				<path class="st15" d="M143.32,121.57l-56.47,28.93l54.99-33.89c1.16,0.67,2.09,2.28,2.09,3.61
					C143.93,120.89,143.69,121.35,143.32,121.57z"/>
			</g>
			<g>
				<path class="st15" d="M86.85,150.51l54.99-33.89c0.81,0.47,1.51,1.39,1.85,2.36L86.85,150.51z"/>
				<path class="st14" d="M86.85,150.51l56.85-31.53c0.15,0.42,0.24,0.85,0.23,1.25c0,0.66-0.23,1.12-0.61,1.34L86.85,150.51z"/>
			</g>
			<g>
				<path class="st15" d="M127.76,125.39c-10.37-0.68-19.69-4.21-30.75,2.18c-11.06,6.39-12.42,17.1-10.17,22.94L127.76,125.39z"/>
				<path class="st14" d="M129.07,127.66c-4.6,9.32-6.55,18.06-17.61,24.44c-11.06,6.38-20.51,3.4-24.44-1.47L129.07,127.66z"/>
			</g>
		</g>
	</g>
	<g>
		<g>
			<path class="st0" d="M282.29,197.69c15.08,8.41,15.58,22.29,1.11,31c-14.47,8.71-38.43,8.95-53.51,0.54
				c-15.08-8.41-15.58-22.29-1.11-31C243.25,189.52,267.2,189.28,282.29,197.69z"/>
		</g>
		<path class="st1" d="M231.26,193.58l11.7-2.9c-0.46-1.93,0.35-3.95,2.44-5.6l-9.54-2.06C231.92,186.14,230.4,189.94,231.26,193.58
			z"/>
		<g class="st2">
			<path class="st0" d="M218.75,201.6l0.23-1.64c0.13-0.69,0.36-1.61,0.53-2.3l0.51-1.58c0.27-0.7,0.67-1.63,0.98-2.32l0.79-1.51
				c0.44-0.74,1.08-1.69,1.56-2.4l1.1-1.41c0.72-0.81,1.73-1.85,2.5-2.61l1.47-1.27c1.36-1.09,1.55-1.21,3.84-2.68
				c0.73-0.43,1.74-0.97,2.49-1.37l2.02-0.95c0.72-0.31,1.69-0.67,2.42-0.96l2.18-0.72c0.71-0.21,1.67-0.46,2.38-0.65l2.28-0.5
				c0.71-0.14,1.66-0.28,2.37-0.4l2.35-0.29c0.71-0.07,1.66-0.13,2.37-0.18l2.37-0.08c0.71-0.01,1.67,0.02,2.38,0.03l2.37,0.13
				c0.72,0.06,1.67,0.17,2.39,0.24l2.34,0.35c0.73,0.13,1.69,0.33,2.41,0.48l2.28,0.57c0.74,0.21,1.72,0.53,2.46,0.76l2.18,0.8
				c0.77,0.32,1.78,0.78,2.55,1.12l2.02,1.05c1.03,0.61,2.38,1.47,3.38,2.14l1.65,1.27c0.83,0.72,1.9,1.72,2.68,2.49l1.26,1.41
				c0.54,0.68,1.22,1.61,1.72,2.32l0.92,1.51c0.36,0.67,0.8,1.58,1.13,2.26l0.62,1.58c0.23,0.67,0.48,1.58,0.68,2.26l0.34,1.63
				c0.11,0.68,0.2,1.6,0.27,2.29c0.02,0.5,0.04,1.16,0.06,1.66c-0.02,5.39-3.48,10.79-10.44,14.97c-14.33,8.63-38.06,8.87-53,0.54
				c-7.69-4.29-11.55-10.01-11.53-15.73C218.64,203.22,218.7,202.29,218.75,201.6z"/>
			<path class="st23" d="M283.16,219.1c6.96-4.19,10.42-9.58,10.44-14.97c-0.02-0.5-0.04-1.16-0.06-1.66
				c-0.07-0.69-0.17-1.6-0.27-2.29l-0.34-1.63c-0.19-0.68-0.45-1.59-0.68-2.26l-0.62-1.58c-0.33-0.68-0.77-1.59-1.13-2.26
				l-0.92-1.51c-0.5-0.71-1.18-1.64-1.72-2.32l-1.26-1.41c-0.78-0.77-1.86-1.77-2.68-2.49l-1.65-1.27c-1-0.67-2.35-1.53-3.38-2.14
				l-2.02-1.05c-0.76-0.34-1.77-0.81-2.55-1.12l-2.18-0.8c-0.74-0.23-1.72-0.55-2.46-0.76l-2.28-0.57
				c-0.72-0.14-1.69-0.35-2.41-0.48l-2.34-0.35c-0.72-0.07-1.67-0.19-2.39-0.24l-2.37-0.13c-0.71-0.01-1.67-0.04-2.38-0.03
				l-2.37,0.08c-0.71,0.06-1.66,0.11-2.37,0.18l-2.35,0.29c-0.71,0.12-1.66,0.27-2.37,0.4l-2.28,0.5c-0.72,0.19-1.67,0.44-2.38,0.65
				l-2.18,0.72c-0.73,0.29-1.7,0.65-2.42,0.96l-2.02,0.95c-0.75,0.41-1.76,0.94-2.49,1.37c0.21-0.13,0.43-0.24,0.65-0.33
				c0,0,0,0,0,0c23.77-12.57,58.41-2.25,51.26,20.79c-3.91,12.59-15.74,21.52-30.88,23.31C264.06,226.15,275.1,223.95,283.16,219.1z
				"/>
			<path class="st18" d="M283.16,219.1c6.96-4.19,10.42-9.58,10.44-14.97c-0.02-0.5-0.04-1.16-0.06-1.66
				c-0.07-0.69-0.17-1.6-0.27-2.29l-0.34-1.63c-0.19-0.68-0.45-1.59-0.68-2.26l-0.62-1.58c-0.33-0.68-0.77-1.59-1.13-2.26
				l-0.92-1.51c-0.5-0.71-1.18-1.64-1.72-2.32l-1.26-1.41c-0.78-0.77-1.86-1.77-2.68-2.49l-1.65-1.27c-1-0.67-2.35-1.53-3.38-2.14
				l-2.02-1.05c-0.76-0.34-1.77-0.81-2.55-1.12l-2.18-0.8c-0.74-0.23-1.72-0.55-2.46-0.76l-2.28-0.57
				c-0.72-0.14-1.69-0.35-2.41-0.48l-2.34-0.35c-0.72-0.07-1.67-0.19-2.39-0.24l-2.37-0.13c-0.71-0.01-1.67-0.04-2.38-0.03
				l-2.37,0.08c-0.71,0.06-1.66,0.11-2.37,0.18c-0.25,0.03-0.58,0.06-0.83,0.09c0.57-0.05,1.32-0.13,1.89-0.18
				c31.05-1.67,46.52,19.77,28.54,39.56c-5.25,5.77-11.72,8.49-13.84,9.39C272.64,223.89,278.42,221.96,283.16,219.1z"/>
			<path class="st1" d="M226.3,198.62c-5.87,6.86,7.37,22.52,24.74,20.41c8.71-1.06,14.22-6.03,11.53-8.73
				c-1.21-1.22-5.16-1.92-5.2-1.93c-9.03-1.54-11.97-2.5-13.91-3.14c-5.55-1.81-9.91-4.56-11.53-5.66c-1.6-1.08-2.65-1.48-2.66-1.48
				C227.64,197.56,226.75,198.09,226.3,198.62z"/>
			<path class="st1" d="M229.28,204.76c-2.52,5.79,13.35,18.4,27.37,11.84c3.2-1.49,6.24-4.58,0.8-6.48
				c-4.16-1.46-8.57-1.87-12.8-3.03c-3.73-1.02-7.26-2.67-11.08-3.39C231.43,203.29,229.98,203.15,229.28,204.76z"/>
			<path class="st24" d="M234.57,209.3c-0.51,2.62,4.29,5.85,7.08,6.6c9.44,2.54,13.46-0.89,13.63-1.03
				c5.17-4.56-17.56-7.06-17.82-7.05C235.55,207.86,234.74,208.28,234.57,209.3z"/>
		</g>
		<g>
			<path class="st25" d="M293.92,216.08l0.01-2.52c-0.02,5.45-3.51,10.89-10.54,15.12c-4.79,2.88-10.62,4.84-16.83,5.86l-0.01,2.52
				c6.21-1.02,12.04-2.98,16.83-5.86C290.41,226.97,293.91,221.53,293.92,216.08z"/>
			<path class="st25" d="M266.56,237.06l0.01-2.52c-4.34,0.71-8.85,0.97-13.33,0.77l-0.01,2.52
				C257.7,238.03,262.22,237.77,266.56,237.06z"/>
			<path class="st25" d="M253.23,237.83l0.01-2.52c-8.46-0.38-16.76-2.41-23.35-6.09c-4.61-2.57-7.85-5.65-9.73-8.93l-0.01,2.52
				c1.87,3.29,5.12,6.37,9.73,8.93C236.48,235.42,244.77,237.44,253.23,237.83z"/>
			<path class="st25" d="M220.15,222.81l0.01-2.52c-1.28-2.25-1.92-4.6-1.92-6.95l-0.01,2.52
				C218.23,218.21,218.87,220.56,220.15,222.81z"/>
		</g>
		<g>
			<path class="st25" d="M293.58,211.05l0.02-6.92c-0.02,5.39-3.48,10.79-10.44,14.97c-4.75,2.86-10.52,4.79-16.67,5.8l-0.02,6.92
				c6.15-1.01,11.92-2.95,16.67-5.8C290.1,221.83,293.56,216.44,293.58,211.05z"/>
			<path class="st25" d="M266.47,231.82l0.02-6.92c-4.29,0.71-8.77,0.96-13.2,0.76l-0.02,6.92
				C257.7,232.78,262.18,232.53,266.47,231.82z"/>
			<path class="st25" d="M253.27,232.58l0.02-6.92c-8.38-0.38-16.6-2.38-23.13-6.03c-4.56-2.54-7.78-5.59-9.63-8.85l-0.02,6.92
				c1.86,3.25,5.07,6.3,9.64,8.85C236.68,230.2,244.89,232.2,253.27,232.58z"/>
			<path class="st25" d="M220.5,217.71l0.02-6.92c-1.27-2.23-1.91-4.55-1.9-6.88l-0.02,6.92
				C218.6,213.15,219.23,215.48,220.5,217.71z"/>
		</g>
		<path class="st1" d="M238.43,175.53c1.68-1.01,3.55-1.84,5.55-2.5c9.21-3.03,21.15-2.34,29.2,2.15c6.78,3.78,9.02,9.26,6.64,14.15
			c-1.06,2.18-3.03,4.23-5.92,5.97c-9.4,5.65-24.95,5.81-34.75,0.35C229.36,190.2,229.04,181.19,238.43,175.53z"/>
		<g>
			<path class="st25" d="M280.74,186.64l0-1.14c-0.01,3.54-2.28,7.07-6.84,9.82c-3.11,1.87-6.9,3.14-10.93,3.81l0,1.14
				c4.03-0.66,7.82-1.93,10.93-3.8C278.45,193.71,280.73,190.17,280.74,186.64z"/>
			<path class="st25" d="M262.97,200.26l0-1.14c-2.82,0.46-5.75,0.63-8.65,0.5l0,1.14C257.22,200.89,260.15,200.72,262.97,200.26z"
				/>
			<path class="st25" d="M254.31,200.76l0-1.14c-5.49-0.25-10.88-1.56-15.16-3.95c-2.99-1.67-5.1-3.67-6.32-5.8l0,1.14
				c1.22,2.13,3.32,4.13,6.32,5.8C243.43,199.2,248.82,200.51,254.31,200.76z"/>
			<path class="st25" d="M232.83,191l0-1.14c-0.83-1.46-1.25-2.99-1.24-4.51l0,1.14C231.58,188.02,232,189.54,232.83,191z"/>
		</g>
		<path class="st23" d="M270.73,186.53c3.13-16.41-6.24-33.32-1.53-49.68c-0.02,0.06-0.03,0.11-0.05,0.17
			c-0.46,1.38-1.59,2.71-3.4,3.8c-5,3.01-13.28,3.09-18.5,0.19c-2.04-1.14-3.31-2.56-3.8-4.06c-0.02-0.06-0.04-0.11-0.05-0.17
			c4.62,16.38-4.85,33.24-1.81,49.67c0.51,1.76,1.96,3.44,4.34,4.77c5.89,3.28,15.24,3.19,20.89-0.21
			C268.95,189.73,270.25,188.16,270.73,186.53z"/>
		<path class="st18" d="M256.14,145.13c2.95,4.27,12.74,31.51,0.28,48.49c3.8-0.03,7.57-0.91,10.4-2.61
			c2.13-1.28,3.42-2.84,3.9-4.47c3.13-16.41-6.24-33.32-1.53-49.68c-0.51,1.55-1.65,2.87-3.46,3.96c-3.02,1.82-7.23,2.57-11.24,2.24
			c0.27,0.33,0.62,0.78,0.89,1.11C255.62,144.46,255.93,144.83,256.14,145.13z"/>
		<path class="st0" d="M241.32,173.21c-0.92,12.53,4.75,21.55,10.63,16.92c12.46-9.81,4.86-45.79-4.68-45.49
			c-1.64,0.05-1.87,1.47-2.93,8.29C243.64,159.68,242.03,166.46,241.32,173.21z"/>
		<path class="st1" d="M243.22,167.77c-1.32,12.37,2.56,18.31,6.78,15.16c7.1-5.29,4.6-29.02-1.24-30.63
			C245.17,151.31,243.51,165.02,243.22,167.77z"/>
		<g class="st2">
			<path class="st25" d="M278.77,132.79l0-1.53c-0.01,3.23-2.08,6.46-6.25,8.97c-2.84,1.71-6.3,2.87-9.98,3.48l0,1.53
				c3.68-0.61,7.14-1.77,9.98-3.48C276.68,139.25,278.76,136.02,278.77,132.79z"/>
			<path class="st25" d="M262.53,145.24l0-1.53c-2.57,0.42-5.25,0.57-7.91,0.46l0,1.53C257.28,145.81,259.96,145.66,262.53,145.24z"
				/>
			<path class="st25" d="M254.62,145.69l0-1.53c-5.02-0.23-9.94-1.43-13.85-3.61c-2.73-1.52-4.66-3.35-5.77-5.3l0,1.53
				c1.11,1.95,3.04,3.78,5.77,5.3C244.68,144.26,249.61,145.47,254.62,145.69z"/>
			<path class="st25" d="M235,136.78l0-1.53c-0.76-1.34-1.14-2.73-1.14-4.12l0,1.53C233.86,134.05,234.24,135.45,235,136.78z"/>
		</g>
		<path class="st0" d="M240.12,122.16c0.13-0.08,0.27-0.16,0.41-0.24c8.62-4.93,22.53-4.99,31.34-0.08
			c7.68,4.28,8.98,10.95,3.78,16.02c-0.86,0.84-1.9,1.63-3.12,2.37c-8.59,5.17-22.8,5.31-31.75,0.32
			C231.83,135.56,231.53,127.33,240.12,122.16z"/>
		<path class="st1" d="M275.26,118.19c0,10.46-8.48,18.94-18.94,18.94c-5.99,0-11.32-2.78-14.79-7.11
			c-2.61-3.24-4.15-7.35-4.15-11.83c0-10.46,8.48-18.94,18.95-18.94c3.74,0,7.23,1.08,10.16,2.97
			C271.76,105.57,275.26,111.47,275.26,118.19z"/>
		<path class="st24" d="M257.21,111.89c0,4.06-3.3,7.36-7.36,7.36c-2.33,0-4.4-1.08-5.75-2.76c-1.01-1.26-1.61-2.86-1.61-4.6
			c0-4.06,3.3-7.36,7.36-7.36c1.45,0,2.81,0.42,3.95,1.15C255.85,106.99,257.21,109.28,257.21,111.89z"/>
		<path class="st18" d="M267.1,102.63c2.92,3.59,4.52,8.07,3.8,13.1c-1.73,13.88-16.92,18.25-29.67,13.86
			c0.1,0.14,0.2,0.28,0.31,0.42c3.47,4.34,8.8,7.11,14.79,7.11c10.46,0,18.94-8.48,18.94-18.94
			C275.26,111.73,272.03,106.05,267.1,102.63z"/>
		<path class="st23" d="M267.1,102.63c-0.2-0.14-0.4-0.28-0.61-0.42c-0.59-0.38-1.21-0.71-1.84-1.03c5.34,7.9,2.21,19.27-5.16,25
			c-6.14,3.51-12.28,2.97-19.16,2.12c0.28,0.44,0.58,0.87,0.89,1.29c12.76,4.39,27.94,0.01,29.67-13.86
			C271.62,110.7,270.02,106.22,267.1,102.63z"/>
	</g>
	<g>
		<ellipse class="st26" cx="169.39" cy="238.53" rx="42.96" ry="24.8"/>
		<g>
			<path class="st27" d="M189.22,219.82c15.08,8.41,15.58,22.29,1.11,31c-14.47,8.71-38.43,8.95-53.51,0.54
				c-15.08-8.41-15.58-22.29-1.11-31C150.18,211.66,174.13,211.41,189.22,219.82z"/>
		</g>
		<path class="st6" d="M138.19,215.72l11.7-2.9c-0.46-1.93,0.35-3.95,2.44-5.6l-9.54-2.06
			C138.85,208.28,137.33,212.07,138.19,215.72z"/>
		<g class="st2">
			<path class="st27" d="M125.68,223.74l0.23-1.64c0.13-0.69,0.36-1.61,0.53-2.3l0.51-1.58c0.27-0.71,0.67-1.63,0.98-2.32l0.79-1.51
				c0.44-0.74,1.08-1.69,1.56-2.4l1.1-1.41c0.72-0.81,1.73-1.85,2.5-2.61l1.47-1.27c1.36-1.09,1.55-1.21,3.84-2.68
				c0.73-0.43,1.74-0.97,2.49-1.37l2.02-0.95c0.72-0.31,1.69-0.67,2.42-0.96l2.18-0.72c0.71-0.21,1.67-0.46,2.38-0.65l2.28-0.5
				c0.71-0.14,1.66-0.28,2.37-0.4l2.35-0.29c0.71-0.07,1.66-0.13,2.37-0.18l2.37-0.08c0.71-0.01,1.67,0.02,2.38,0.03l2.37,0.13
				c0.72,0.06,1.67,0.17,2.39,0.24l2.34,0.35c0.73,0.13,1.69,0.33,2.41,0.48l2.28,0.57c0.74,0.21,1.72,0.53,2.46,0.76l2.18,0.8
				c0.77,0.32,1.78,0.78,2.54,1.12l2.02,1.05c1.03,0.61,2.38,1.47,3.38,2.14l1.65,1.27c0.83,0.72,1.9,1.72,2.68,2.49l1.26,1.41
				c0.54,0.68,1.22,1.61,1.72,2.32l0.92,1.51c0.36,0.67,0.8,1.58,1.13,2.26l0.62,1.58c0.23,0.67,0.48,1.58,0.68,2.26l0.34,1.63
				c0.11,0.68,0.2,1.6,0.27,2.29c0.02,0.5,0.04,1.16,0.06,1.66c-0.02,5.39-3.48,10.79-10.44,14.97c-14.33,8.63-38.06,8.87-53,0.54
				c-7.69-4.29-11.55-10.01-11.53-15.73C125.57,225.35,125.63,224.43,125.68,223.74z"/>
			<path class="st11" d="M190.09,241.24c6.96-4.19,10.42-9.58,10.44-14.97c-0.02-0.5-0.04-1.16-0.06-1.66
				c-0.07-0.69-0.17-1.6-0.27-2.29l-0.34-1.63c-0.19-0.68-0.45-1.59-0.68-2.26l-0.62-1.58c-0.33-0.68-0.77-1.59-1.13-2.26
				l-0.92-1.51c-0.5-0.71-1.18-1.64-1.72-2.32l-1.26-1.41c-0.78-0.77-1.86-1.77-2.68-2.49l-1.65-1.27c-1-0.67-2.35-1.53-3.38-2.14
				l-2.02-1.05c-0.76-0.34-1.77-0.81-2.54-1.12l-2.18-0.8c-0.74-0.23-1.72-0.55-2.46-0.76l-2.28-0.57
				c-0.72-0.14-1.69-0.35-2.41-0.48l-2.34-0.35c-0.72-0.07-1.67-0.19-2.39-0.24l-2.37-0.13c-0.71-0.01-1.67-0.04-2.38-0.03
				l-2.37,0.08c-0.71,0.05-1.66,0.11-2.37,0.18l-2.35,0.29c-0.71,0.12-1.66,0.27-2.37,0.4l-2.28,0.5c-0.72,0.19-1.67,0.44-2.38,0.65
				l-2.18,0.72c-0.73,0.29-1.7,0.65-2.42,0.96l-2.02,0.95c-0.75,0.41-1.76,0.94-2.49,1.37c0.21-0.13,0.43-0.24,0.65-0.33l0,0
				c23.77-12.57,58.41-2.25,51.26,20.79c-3.91,12.59-15.74,21.52-30.88,23.31C170.99,248.29,182.03,246.09,190.09,241.24z"/>
			<path class="st13" d="M190.09,241.24c6.96-4.19,10.42-9.58,10.44-14.97c-0.02-0.5-0.04-1.16-0.06-1.66
				c-0.07-0.69-0.17-1.6-0.27-2.29l-0.34-1.63c-0.19-0.68-0.45-1.59-0.68-2.26l-0.62-1.58c-0.33-0.68-0.77-1.59-1.13-2.26
				l-0.92-1.51c-0.5-0.71-1.18-1.64-1.72-2.32l-1.26-1.41c-0.78-0.77-1.86-1.77-2.68-2.49l-1.65-1.27c-1-0.67-2.35-1.53-3.38-2.14
				l-2.02-1.05c-0.76-0.34-1.77-0.81-2.54-1.12l-2.18-0.8c-0.74-0.23-1.72-0.55-2.46-0.76l-2.28-0.57
				c-0.72-0.14-1.69-0.35-2.41-0.48l-2.34-0.35c-0.72-0.07-1.67-0.19-2.39-0.24l-2.37-0.13c-0.71-0.01-1.67-0.04-2.38-0.03
				l-2.37,0.08c-0.71,0.05-1.66,0.11-2.37,0.18c-0.25,0.03-0.58,0.06-0.83,0.09c0.57-0.05,1.32-0.13,1.89-0.18
				c31.05-1.67,46.52,19.77,28.54,39.56c-5.25,5.77-11.72,8.49-13.84,9.39C179.57,246.03,185.35,244.09,190.09,241.24z"/>
			<path class="st28" d="M133.23,220.76c-5.87,6.86,7.37,22.52,24.74,20.41c8.71-1.06,14.22-6.03,11.53-8.73
				c-1.21-1.22-5.16-1.92-5.2-1.93c-9.03-1.54-11.97-2.5-13.91-3.14c-5.55-1.81-9.91-4.56-11.53-5.66c-1.6-1.08-2.65-1.48-2.66-1.48
				C134.57,219.7,133.68,220.22,133.23,220.76z"/>
			<path class="st28" d="M136.21,226.9c-2.52,5.79,13.35,18.4,27.37,11.84c3.2-1.49,6.24-4.58,0.8-6.48
				c-4.16-1.46-8.57-1.87-12.8-3.03c-3.73-1.02-7.26-2.67-11.08-3.39C138.36,225.43,136.91,225.28,136.21,226.9z"/>
			<path class="st29" d="M135.15,225.14c-1.05,2.46,2.97,6.61,5.55,7.93c8.7,4.45,13.35,1.94,13.55,1.83
				c6.01-3.38-15.7-10.57-15.96-10.62C136.4,223.93,135.52,224.17,135.15,225.14z"/>
		</g>
		<g>
			<path class="st4" d="M200.85,238.22l0.01-2.52c-0.02,5.45-3.51,10.89-10.54,15.12c-4.79,2.88-10.62,4.84-16.83,5.86l-0.01,2.52
				c6.21-1.02,12.04-2.98,16.83-5.86C197.34,249.11,200.84,243.67,200.85,238.22z"/>
			<path class="st4" d="M173.49,259.2l0.01-2.52c-4.34,0.71-8.85,0.97-13.33,0.77l-0.01,2.52
				C164.63,260.17,169.15,259.91,173.49,259.2z"/>
			<path class="st4" d="M160.16,259.96l0.01-2.52c-8.46-0.38-16.76-2.41-23.35-6.09c-4.61-2.57-7.85-5.65-9.73-8.93l-0.01,2.52
				c1.87,3.29,5.12,6.36,9.73,8.93C143.41,257.56,151.7,259.58,160.16,259.96z"/>
			<path class="st4" d="M127.08,244.94l0.01-2.52c-1.28-2.25-1.92-4.6-1.92-6.95l-0.01,2.52
				C125.16,240.35,125.8,242.69,127.08,244.94z"/>
		</g>
		<g>
			<path class="st4" d="M200.51,233.18l0.02-6.92c-0.02,5.39-3.48,10.79-10.44,14.97c-4.75,2.86-10.52,4.79-16.67,5.8l-0.02,6.92
				c6.15-1.01,11.92-2.95,16.67-5.8C197.03,243.97,200.49,238.58,200.51,233.18z"/>
			<path class="st4" d="M173.4,253.96l0.02-6.92c-4.29,0.71-8.77,0.96-13.2,0.76l-0.02,6.92
				C164.63,254.92,169.11,254.67,173.4,253.96z"/>
			<path class="st4" d="M160.2,254.72l0.02-6.92c-8.38-0.38-16.6-2.38-23.13-6.03c-4.56-2.54-7.78-5.59-9.63-8.85l-0.02,6.92
				c1.86,3.25,5.07,6.3,9.64,8.85C143.61,252.34,151.82,254.34,160.2,254.72z"/>
			<path class="st4" d="M127.44,239.84l0.02-6.92c-1.27-2.23-1.91-4.55-1.9-6.88l-0.02,6.92
				C125.53,235.29,126.16,237.62,127.44,239.84z"/>
		</g>
		<path class="st6" d="M145.36,197.67c1.68-1.01,3.55-1.84,5.55-2.5c9.21-3.03,21.15-2.34,29.2,2.15c6.78,3.78,9.02,9.26,6.64,14.15
			c-1.06,2.18-3.03,4.23-5.92,5.97c-9.4,5.66-24.95,5.81-34.75,0.35C136.29,212.34,135.97,203.33,145.36,197.67z"/>
		<g>
			<path class="st4" d="M187.67,208.78l0-1.14c-0.01,3.54-2.28,7.07-6.84,9.82c-3.11,1.87-6.9,3.14-10.93,3.81l0,1.14
				c4.03-0.66,7.82-1.93,10.93-3.81C185.38,215.85,187.66,212.31,187.67,208.78z"/>
			<path class="st4" d="M169.9,222.4l0-1.14c-2.81,0.46-5.75,0.63-8.65,0.5l0,1.14C164.15,223.03,167.08,222.86,169.9,222.4z"/>
			<path class="st4" d="M161.24,222.89l0-1.14c-5.49-0.25-10.88-1.56-15.16-3.95c-2.99-1.67-5.1-3.67-6.32-5.8l0,1.14
				c1.22,2.13,3.32,4.13,6.32,5.8C150.36,221.33,155.75,222.65,161.24,222.89z"/>
			<path class="st4" d="M139.76,213.14l0-1.14c-0.83-1.46-1.25-2.99-1.24-4.51l0,1.14C138.51,210.16,138.93,211.68,139.76,213.14z"
				/>
		</g>
		<path class="st11" d="M177.66,208.67c3.13-16.41-6.24-33.32-1.53-49.68c-0.02,0.06-0.03,0.11-0.05,0.17
			c-0.46,1.38-1.59,2.71-3.4,3.8c-5,3.01-13.28,3.09-18.5,0.19c-2.04-1.14-3.31-2.56-3.79-4.06c-0.02-0.06-0.04-0.11-0.05-0.17
			c4.62,16.38-4.85,33.24-1.81,49.67c0.51,1.76,1.96,3.44,4.34,4.77c5.89,3.28,15.24,3.19,20.89-0.21
			C175.88,211.86,177.18,210.3,177.66,208.67z"/>
		<path class="st13" d="M163.07,167.27c2.95,4.27,12.75,31.51,0.28,48.49c3.8-0.03,7.57-0.91,10.4-2.61
			c2.13-1.28,3.42-2.85,3.9-4.47c3.13-16.41-6.24-33.32-1.53-49.68c-0.51,1.55-1.65,2.87-3.46,3.96c-3.02,1.82-7.23,2.57-11.24,2.24
			c0.27,0.33,0.62,0.78,0.89,1.11C162.55,166.59,162.86,166.97,163.07,167.27z"/>
		<path class="st6" d="M148.25,195.35c-0.92,12.53,4.75,21.55,10.63,16.92c12.46-9.81,4.86-45.79-4.68-45.49
			c-1.64,0.05-1.87,1.47-2.93,8.29C150.57,181.82,148.96,188.6,148.25,195.35z"/>
		<path class="st27" d="M150.15,189.91c-1.32,12.37,2.56,18.31,6.78,15.16c7.1-5.29,4.6-29.02-1.24-30.63
			C152.1,173.45,150.44,187.15,150.15,189.91z"/>
		<g class="st2">
			<path class="st4" d="M185.7,154.93l0-1.53c-0.01,3.23-2.08,6.46-6.25,8.97c-2.84,1.71-6.3,2.87-9.98,3.48l0,1.53
				c3.68-0.61,7.14-1.77,9.98-3.48C183.61,161.39,185.69,158.16,185.7,154.93z"/>
			<path class="st4" d="M169.46,167.37l0-1.53c-2.57,0.42-5.25,0.57-7.91,0.46l0,1.53C164.21,167.95,166.89,167.8,169.46,167.37z"/>
			<path class="st4" d="M161.55,167.83l0-1.53c-5.02-0.23-9.94-1.43-13.85-3.61c-2.73-1.52-4.66-3.35-5.77-5.3l0,1.53
				c1.11,1.95,3.04,3.78,5.77,5.3C151.61,166.4,156.54,167.6,161.55,167.83z"/>
			<path class="st4" d="M141.93,158.92l0-1.53c-0.76-1.33-1.14-2.73-1.14-4.12l0,1.53C140.79,156.19,141.17,157.58,141.93,158.92z"
				/>
		</g>
		<path class="st27" d="M147.05,144.3c0.13-0.08,0.27-0.16,0.41-0.24c8.62-4.93,22.53-4.99,31.34-0.08
			c7.68,4.28,8.98,10.95,3.78,16.02c-0.86,0.84-1.9,1.63-3.12,2.37c-8.59,5.17-22.8,5.31-31.75,0.32
			C138.76,157.7,138.46,149.46,147.05,144.3z"/>
		<path class="st6" d="M182.19,140.32c0,10.46-8.48,18.94-18.94,18.94c-5.99,0-11.32-2.78-14.79-7.11
			c-2.61-3.24-4.15-7.35-4.15-11.83c0-10.46,8.48-18.94,18.95-18.94c3.74,0,7.23,1.08,10.16,2.97
			C178.69,127.71,182.19,133.6,182.19,140.32z"/>
		<path class="st27" d="M164.14,134.03c0,4.06-3.3,7.36-7.36,7.36c-2.33,0-4.4-1.08-5.75-2.76c-1.01-1.26-1.61-2.86-1.61-4.6
			c0-4.06,3.3-7.36,7.36-7.36c1.45,0,2.81,0.42,3.95,1.15C162.78,129.13,164.14,131.42,164.14,134.03z"/>
		<path class="st13" d="M174.03,124.77c2.92,3.59,4.52,8.07,3.8,13.1c-1.73,13.88-16.92,18.25-29.67,13.86
			c0.1,0.14,0.2,0.28,0.31,0.42c3.47,4.33,8.8,7.11,14.79,7.11c10.46,0,18.94-8.48,18.94-18.94
			C182.19,133.87,178.96,128.18,174.03,124.77z"/>
		<path class="st11" d="M174.03,124.77c-0.2-0.14-0.4-0.28-0.61-0.42c-0.59-0.38-1.21-0.71-1.84-1.03c5.34,7.9,2.21,19.27-5.16,25
			c-6.14,3.51-12.28,2.97-19.16,2.12c0.28,0.44,0.58,0.87,0.89,1.29c12.76,4.39,27.94,0.01,29.67-13.86
			C178.55,132.84,176.95,128.36,174.03,124.77z"/>
	</g>
	<g>
		<polygon class="st0" points="261.25,263.88 284.38,277.23 284.38,280.62 284.38,310.42 202.12,330.86 		"/>
		<polygon class="st30" points="220.61,322.09 284.38,277.23 289.46,288.82 		"/>
		<polygon class="st0" points="297.04,284.54 324.56,300.43 284.38,310.42 221.07,321.96 		"/>
	</g>
</g>
</svg>
